<svg xmlns="http://www.w3.org/2000/svg" width="24" height="24" fill="none" viewBox="0 0 24 24"><g stroke="#fff" stroke-linecap="round" stroke-linejoin="round" clip-path="url(#a)"><path d="M4 8V6a2 2 0 0 1 2-2h2M4 16v2a2 2 0 0 0 2 2h2M16 4h2a2 2 0 0 1 2 2v2M16 20h2a2 2 0 0 0 2-2v-2M8.603 9.61a2.04 2.04 0 0 1 2.912 0L12 10l.5-.396a2.036 2.036 0 0 1 2.897.007 2.104 2.104 0 0 1 0 2.949L12 16l-3.397-3.44a2.104 2.104 0 0 1 0-2.95Z"/></g><defs><clipPath id="a"><path fill="#fff" d="M0 0h24v24H0z"/></clipPath></defs></svg>